<?xml version="1.0" encoding="utf-8"?>
<!-- Generator: Adobe Illustrator 22.1.0, SVG Export Plug-In . SVG Version: 6.00 Build 0)  -->
<svg version="1.1" id="Layer_1" xmlns="http://www.w3.org/2000/svg" xmlns:xlink="http://www.w3.org/1999/xlink" x="0px" y="0px"
	 viewBox="0 0 112 30" style="enable-background:new 0 0 112 30;" xml:space="preserve">
<style type="text/css">
	.st0{filter:url(#Adobe_OpacityMaskFilter);}
	.st1{fill:#FFFFFF;}
	.st2{mask:url(#mask-2_1_);fill:#231F20;}
</style>
<title>-logo</title>
<desc>Created with Sketch.</desc>
<g id="Page-1">
	<g id="loreal_d_pdp_dream_length" transform="translate(-75.000000, -26.000000)">
		<g id="Desktop---Nav">
			<g id="_x2D_logo" transform="translate(75.000000, 26.000000)">
				<g id="Clip-2">
				</g>
				<defs>
					<filter id="Adobe_OpacityMaskFilter" filterUnits="userSpaceOnUse" x="0" y="0" width="111.8" height="30">
						<feColorMatrix  type="matrix" values="1 0 0 0 0  0 1 0 0 0  0 0 1 0 0  0 0 0 1 0"/>
					</filter>
				</defs>
				<mask maskUnits="userSpaceOnUse" x="0" y="0" width="111.8" height="30" id="mask-2_1_">
					<g class="st0">
						<polygon id="path-1_1_" class="st1" points="0,0 111.8,0 111.8,30 0,30 						"/>
					</g>
				</mask>
				<path id="Fill-1" class="st2" d="M14.6,17.2H2.3V2.7H0V19h14.6V17.2z M12.1,8.5l3-5.7h-2.4l-2.3,5.7H12.1z M27.2,18.3
					c-4.5,0-8.3-3.7-8.3-8.1c0-4.4,3.6-8.2,8.4-8.2c4.8,0,8.3,3.8,8.3,8.2C35.6,14.7,31.7,18.3,27.2,18.3z M27.3,0
					c-6.5,0-11,4.6-11,10.3c0,5.9,4.9,10.1,11,10.1c6.1,0,11-4.1,11-10.1C38.3,4.6,33.8,0,27.3,0z M51.1,10.3h-7.5V4.7h7.8
					c1.8,0,2.8,0.8,3.2,1.9c0.2,0.7,0.1,1.7-0.3,2.4C53.5,10,52.3,10.3,51.1,10.3z M53,12.2c3.7-1,4.1-3.8,4-4.8
					c-0.2-2.9-2.2-4.7-5.7-4.7H41.2V19h2.3v-6.8h6.6L55,19h2.9C57.9,19,54.4,14.4,53,12.2z M82.3,12.8L86.2,5l3.9,7.8H82.3z
					 M84.6,2.7L76.4,19h2.8l2.1-4.2h9.8l2.1,4.2H96L87.8,2.7H84.6z M111.8,17.2H99.5V2.7h-2.3V19h14.6V17.2z M72.5,0.1h-4.2l-2,2.2
					L72.5,0.1z M72.3,11.5V9.7h-9V4.5h12V2.7H60.8V19h14.4v-1.8h-12v-5.7H72.3z M64.8,29.8H66v-4.6h-1.2V29.8z M64.8,24.4h1.2v-1.2
					h-1.2V24.4z M73.6,26.3l-2.5-0.4c-0.5-0.1-1-0.3-1-0.8c0-1,1.2-1.1,2-1.1c1,0,2.1,0.3,2.2,1.3h1.1c0-0.7-0.4-2.1-3.4-2.1
					c-2.1,0-3,1-3,2c0,1.1,1.3,1.4,1.9,1.5l1.8,0.3c1.4,0.3,1.9,0.5,1.9,1.1c0,0.9-1.4,1.1-2.3,1.1c-1.1,0-2.4-0.3-2.4-1.5h-1.1
					c0,0.6,0.1,1.1,0.9,1.6c0.4,0.3,1,0.6,2.6,0.6c1.5,0,3.4-0.4,3.4-2C75.6,27,74.8,26.5,73.6,26.3z M46.7,27.1l1.6-2.9h0l1.5,2.9
					H46.7z M47.6,23.3l-3.8,6.5h1.4l1-1.9h4l1,1.9h1.5l-3.6-6.5H47.6z M56.1,26.3h2.4c1.1,0,1.8-0.3,1.8-1.2c0-0.8-0.8-1.1-1.8-1.1
					h-2.5V26.3z M61.9,29.8h-1.4l-1.8-2.6c0,0-0.1-0.1-0.1-0.1h0.1c0,0,0,0-0.1,0h-2.5v2.7h-1.2v-6.5H59c1.7,0,2.7,0.8,2.7,1.8
					c0,0.7-0.5,1.6-1.8,1.8L61.9,29.8z M40.4,26.3H38v-2.3h2.5c1,0,1.8,0.3,1.8,1.1C42.2,26,41.5,26.3,40.4,26.3z M40.8,23.3h-4.1
					v6.5H38v-2.7h2.8c2,0,2.7-1,2.7-1.9C43.5,24.1,42.5,23.3,40.8,23.3z"/>
			</g>
		</g>
	</g>
</g>
</svg>
